<svg width="200" height="200" viewBox="0 0 200 200" fill="none" xmlns="http://www.w3.org/2000/svg">
<circle cx="100" cy="100" r="100" fill="black"/>
<path d="M71.7407 35.0028C72.7464 35.0025 73.752 35.0023 74.7881 35.002C78.0941 35.0033 81.3999 35.0189 84.7058 35.0346C87.0051 35.0383 89.3044 35.0412 91.6037 35.0432C97.642 35.0508 103.68 35.0704 109.719 35.0926C115.886 35.1131 122.053 35.1222 128.22 35.1322C140.31 35.1537 152.401 35.1888 164.491 35.2299C164.491 43.1499 164.491 51.0699 164.491 59.2299C160.123 59.2596 160.123 59.2596 155.666 59.2899C146.047 59.3568 136.428 59.4345 126.808 59.5174C120.976 59.5674 115.144 59.6137 109.311 59.6518C103.683 59.6886 98.055 59.735 92.427 59.788C90.2793 59.8065 88.1315 59.8216 85.9837 59.8332C82.9766 59.8501 79.9699 59.8791 76.9629 59.911C75.6293 59.9143 75.6293 59.9143 74.2688 59.9176C68.1015 59.9316 68.1015 59.9316 62.491 62.2299C60.2875 65.9963 60.2382 69.4792 60.2322 73.7768C60.2259 75.0816 60.2196 76.3865 60.2131 77.7309C60.2167 79.1472 60.2208 80.5635 60.2254 81.9799C60.224 83.4405 60.2221 84.9011 60.2196 86.3617C60.2166 89.4181 60.2209 92.4743 60.2303 95.5307C60.2416 99.4413 60.2351 103.352 60.2231 107.262C60.2159 110.277 60.2182 113.292 60.2234 116.306C60.2247 117.748 60.2231 119.189 60.2184 120.631C60.2133 122.648 60.2225 124.666 60.2322 126.683C60.2338 127.829 60.2354 128.976 60.237 130.157C60.501 133.35 60.8715 135.462 62.491 138.23C66.4449 140.591 70.3273 140.502 74.8516 140.549C75.5741 140.559 76.2966 140.569 77.041 140.579C79.4162 140.61 81.7914 140.627 84.1668 140.644C85.8187 140.663 87.4707 140.682 89.1226 140.703C93.461 140.754 97.7994 140.794 102.138 140.831C106.569 140.871 111 140.922 115.43 140.972C124.117 141.069 132.804 141.152 141.491 141.23C141.491 131.66 141.491 122.09 141.491 112.23C120.701 112.23 99.911 112.23 78.491 112.23C78.491 104.31 78.491 96.3899 78.491 88.2299C88.6877 88.1394 98.8841 88.0661 109.081 88.0226C113.816 88.0018 118.551 87.9735 123.286 87.9281C127.857 87.8846 132.428 87.8607 136.999 87.8504C138.742 87.843 140.484 87.8286 142.226 87.807C144.67 87.7778 147.113 87.7739 149.558 87.7758C150.275 87.7614 150.992 87.747 151.731 87.7322C156.771 87.7734 159.657 88.9905 163.491 92.2299C165.794 95.4171 165.754 98.3222 165.782 102.188C165.794 103.39 165.807 104.592 165.82 105.83C165.822 107.124 165.825 108.419 165.827 109.753C165.833 111.101 165.84 112.448 165.847 113.796C165.859 116.619 165.863 119.441 165.862 122.264C165.861 125.871 165.889 129.477 165.923 133.084C165.945 135.867 165.949 138.65 165.948 141.433C165.952 143.406 165.974 145.379 165.995 147.352C165.938 158.699 165.938 158.699 161.491 163.23C158.725 164.877 156.683 165.482 153.477 165.497C152.688 165.506 151.9 165.514 151.087 165.523C149.802 165.522 149.802 165.522 148.491 165.52C147.581 165.527 146.672 165.534 145.735 165.541C142.725 165.56 139.716 165.564 136.706 165.566C134.608 165.572 132.51 165.579 130.412 165.586C126.01 165.598 121.608 165.602 117.205 165.6C111.585 165.6 105.966 165.628 100.347 165.662C96.0098 165.684 91.6731 165.688 87.3362 165.687C85.2659 165.69 83.1956 165.698 81.1254 165.714C67.8692 165.804 56.0662 165.769 45.2762 156.996C37.9544 149.754 35.2596 141.765 35.2005 131.541C35.1938 130.807 35.187 130.073 35.1801 129.316C35.1612 126.907 35.1572 124.498 35.1551 122.089C35.1486 120.399 35.1419 118.709 35.1349 117.019C35.1229 113.482 35.1192 109.945 35.1204 106.408C35.1206 101.902 35.0933 97.3957 35.0588 92.8893C35.0365 89.3992 35.0326 85.9092 35.0336 82.419C35.0313 80.759 35.0225 79.099 35.0069 77.439C34.9047 65.4181 35.8442 54.7073 43.7254 45.015C51.9043 36.7456 60.5429 34.917 71.7407 35.0028Z" fill="white"/>
</svg>
